# xmcd
#
# Track frame offsets:
#	182
#	25007
#	42392
#	64552
#	83955
#	107160
#	130230
#	153835
#	174777
#	193820
#	216905
#	240645
#	260792
#
# Disc length: 3715 seconds
#
# Revision: 7
# Processed by: cddbd v1.5.1PL2 Copyright (c) Steve Scherf et al.
# Submitted via: audiograbber 1.83.01
#
DISCID=af0e810d
DTITLE=2Pac - All Eyez On Me Book 2
DYEAR=1995
DGENRE=Rap
TTITLE0=2Pac Ft. George Clinton - Can't C Me
TTITLE1=2Pac - Shorty Wanna Be A Thug
TTITLE2=2Pac - Holla At Me
TTITLE3=2Pac - Wonda Why They Call U
TTITLE4=2Pac Ft. Outlaw Immortalz - When We Ride
TTITLE5=2Pac Ft. Jewell, Dramacydal and Storm - Thug Passion
TTITLE6=2Pac Ft. Danny Boy, Syke and CPO - Picture Me Rollin'
TTITLE7=2Pac Ft. Kurupt and Syke - Check Out Time
TTITLE8=2Pac Ft. Richie Rich - Ratha Be Ya Nigga
TTITLE9=2Pac Ft. Syke - All Eyez On Me
TTITLE10=2Pac Ft. Michel'le, Mulah and Storm - Run Tha Streetz
TTITLE11=2Pac Ft. E-40, B-Legit, C-Bo and Richie Rich - Ain't Hard 2 Find
TTITLE12=2Pac - Heaven Ain't Hard 2 Find
EXTD=
EXTT0=
EXTT1=
EXTT2=
EXTT3=
EXTT4=
EXTT5=
EXTT6=
EXTT7=
EXTT8=
EXTT9=
EXTT10=
EXTT11=
EXTT12=
PLAYORDER=
